<?xml version="1.0" encoding="UTF-8" standalone="no"?>
<svg
   xmlns:dc="http://purl.org/dc/elements/1.1/"
   xmlns:cc="http://creativecommons.org/ns#"
   xmlns:rdf="http://www.w3.org/1999/02/22-rdf-syntax-ns#"
   xmlns:svg="http://www.w3.org/2000/svg"
   xmlns="http://www.w3.org/2000/svg"
   xmlns:sodipodi="http://sodipodi.sourceforge.net/DTD/sodipodi-0.dtd"
   xmlns:inkscape="http://www.inkscape.org/namespaces/inkscape"
   height="1024"
   width="896"
   id="svg4141"
   version="1.1"
   inkscape:version="0.91+devel+osxmenu r12922"
   sodipodi:docname="clb.svg"
   viewBox="0 0 896 1024">
  <metadata
     id="metadata4149">
    <rdf:RDF>
      <cc:Work
         rdf:about="">
        <dc:format>image/svg+xml</dc:format>
        <dc:type
           rdf:resource="http://purl.org/dc/dcmitype/StillImage" />
      </cc:Work>
    </rdf:RDF>
  </metadata>
  <defs
     id="defs4147" />
  <sodipodi:namedview
     pagecolor="#ffffff"
     bordercolor="#666666"
     borderopacity="1"
     objecttolerance="10"
     gridtolerance="10"
     guidetolerance="10"
     inkscape:pageopacity="0"
     inkscape:pageshadow="2"
     inkscape:window-width="1116"
     inkscape:window-height="710"
     id="namedview4145"
     inkscape:document-units="px"
     showgrid="false"
     inkscape:zoom="0.5266571"
     inkscape:cx="448"
     inkscape:cy="512"
     inkscape:window-x="448"
     inkscape:window-y="23"
     inkscape:window-maximized="0"
     inkscape:current-layer="svg4141" />
  <path
     d="m 768,768 -256,0 0,64 256,0 0,-64 z"
     id="path4163" />
  <path
     d="M 265.71821,384 768,384 l 0,64 -502.28179,0 0,-64 z"
     id="path4161"
     inkscape:connector-curvature="0"
     style="stroke-width:1.25284898" />
  <path
     d="m 320,626 0,-128 192,192 -192,192 0,-128 -320,0 0,-128 320,0 z"
     id="path4159"
     inkscape:connector-curvature="0" />
  <path
     d="m 530,512 238,0 0,64 -238,0 z"
     id="path4157"
     inkscape:connector-curvature="0"
     sodipodi:nodetypes="ccccc" />
  <path
     d="m 768,704 -160,0 0,-64 160,0 0,64 z"
     id="path4155" />
  <path
     d="m 192,804 -64,0 0,92 c 1,18 7,33 19,45 12,12 27,18 45,19 l 640,0 c 35,0 64,-29 64,-64 l 0,-704 c 0,-35 -29,-64 -64,-64 l -192,0 C 640,57 583,0 512,0 441,0 384,57 384,128 l -192,0 c -35,0 -64,29 -64,64 l 0,372 64,0 0,-320 640,0 0,652 -640,0 z"
     id="path4153"
     inkscape:connector-curvature="0"
     sodipodi:nodetypes="cccscsssscscssccccccc" />
  <path
     inkscape:connector-curvature="0"
     d="m 260.0219,270.46791 507.9781,0 0,64 -507.9781,0 0,-64 z"
     id="path4161-9"
     style="stroke-width:1.25993311" />
</svg>
