<?xml version="1.0" encoding="UTF-8" standalone="no"?>
<!-- Created with Inkscape (http://www.inkscape.org/) -->

<svg
   xmlns:dc="http://purl.org/dc/elements/1.1/"
   xmlns:cc="http://creativecommons.org/ns#"
   xmlns:rdf="http://www.w3.org/1999/02/22-rdf-syntax-ns#"
   xmlns:svg="http://www.w3.org/2000/svg"
   xmlns="http://www.w3.org/2000/svg"
   xmlns:sodipodi="http://sodipodi.sourceforge.net/DTD/sodipodi-0.dtd"
   xmlns:inkscape="http://www.inkscape.org/namespaces/inkscape"
   width="80"
   height="16.000032"
   viewBox="0 0 21.166666 4.233342"
   id="svg5260"
   version="1.1"
   inkscape:version="0.91+devel+osxmenu r12922"
   sodipodi:docname="nav.svg">
  <defs
     id="defs5262" />
  <sodipodi:namedview
     id="base"
     pagecolor="#ffffff"
     bordercolor="#666666"
     borderopacity="1.0"
     inkscape:pageopacity="0.0"
     inkscape:pageshadow="2"
     inkscape:zoom="2.32"
     inkscape:cx="84.413909"
     inkscape:cy="-20.754405"
     inkscape:document-units="mm"
     inkscape:current-layer="layer1"
     showgrid="false"
     units="px"
     fit-margin-top="0"
     fit-margin-left="3"
     fit-margin-right="0"
     fit-margin-bottom="0"
     inkscape:window-width="960"
     inkscape:window-height="600"
     inkscape:window-x="165"
     inkscape:window-y="23"
     inkscape:window-maximized="0" />
  <metadata
     id="metadata5265">
    <rdf:RDF>
      <cc:Work
         rdf:about="">
        <dc:format>image/svg+xml</dc:format>
        <dc:type
           rdf:resource="http://purl.org/dc/dcmitype/StillImage" />
        <dc:title></dc:title>
      </cc:Work>
    </rdf:RDF>
  </metadata>
  <g
     inkscape:label="Layer 1"
     inkscape:groupmode="layer"
     id="layer1"
     transform="translate(0,-169.23818)">
    <path
       inkscape:connector-curvature="0"
       d="m 7.7186946,169.23819 -2.956191,0 c -0.2913109,0 -0.5291703,0.23813 -0.5291703,0.52917 l 0,3.175 c 0,0.29104 0.2378594,0.52916 0.5291703,0.52916 l 3.175001,0 c 0.291311,0 0.529171,-0.23812 0.529171,-0.52916 l 0,-2.87682 -0.747981,-0.82735 z m -0.31036,1.5875 c 0,0.14526 -0.11906,0.26458 -0.26458,0.26458 l -1.5875002,0 c -0.1455199,0 -0.2645799,-0.11932 -0.2645799,-0.26458 l 0,-1.32292 2.1166601,0 0,1.32292 z m -0.26458,-1.05833 -0.52917,0 0,1.05833 0.52917,0 0,-1.05833 z"
       id="path4709"
       style="fill:#000000;stroke-width:0.26458347" />
    <g
       transform="matrix(0.00481061,0,0,0.00481061,12.7,168.94955)"
       id="g4143">
      <path
         d="m 440,60 c 0,0 120,336 120,336 0,0 320,0 320,0 0,0 -262,196 -262,196 0,0 94,348 94,348 0,0 -272,-208 -272,-208 0,0 -272,208 -272,208 0,0 94,-348 94,-348 0,0 -262,-196 -262,-196 0,0 320,0 320,0 0,0 120,-336 120,-336"
         id="path4145"
         inkscape:connector-curvature="0" />
    </g>
    <g
       transform="matrix(0.00460145,0,0,0.00460145,16.933333,168.6584)"
       id="g4155">
      <path
         d="m 920,214 c -24,36 -55.333,68.667 -94,98 0,0 0,24 0,24 0,86.667 -20,170 -60,250 -40,80 -102,147.667 -186,203 -84,55.333 -180.667,83 -290,83 -106.667,0 -203.333,-28 -290,-84 9.333,1.333 24.667,2 46,2 88,0 166,-26.667 234,-80 -41.333,-1.333 -78,-14 -110,-38 -32,-24 -54,-55.333 -66,-94 6.667,2.667 18,4 34,4 17.333,0 34,-2 50,-6 C 144,566.667 108,544.667 80,510 52,475.333 38,435.333 38,390 c 0,0 0,-2 0,-2 24,13.333 52,21.333 84,24 -56,-38.667 -84,-91.333 -84,-158 0,-32 8.667,-63.333 26,-94 102.667,125.333 232.667,190.667 390,196 -4,-12 -6,-26 -6,-42 0,-52 18.333,-96.333 55,-133 36.667,-36.667 81.667,-55 135,-55 54.667,0 100,19.333 136,58 40,-8 80,-22.667 120,-44 -13.333,44 -40.667,78.667 -82,104 37.333,-5.333 73.333,-15.333 108,-30 0,0 0,0 0,0"
         id="path4157"
         inkscape:connector-curvature="0" />
    </g>
    <g
       transform="matrix(0.00703571,0,0,0.00703571,0.26458333,167.84403)"
       id="g5864">
      <path
         d="m 486,474 c 9.333,6.667 14,15.333 14,26 0,9.333 -4.667,17.333 -14,24 0,0 -428,266 -428,266 -16,10.667 -29.667,12.667 -41,6 C 5.667,789.333 0,776 0,756 c 0,0 0,-514 0,-514 0,-20 5.667,-33.333 17,-40 11.333,-6.667 25,-4.667 41,6 0,0 428,266 428,266"
         id="path5866"
         inkscape:connector-curvature="0" />
    </g>
    <g
       transform="matrix(0.01056804,0,0,0.01056804,142.61042,261.4482)"
       id="g6437">
      <path
         d="m 294,734 c 9.333,-9.333 20.667,-14 34,-14 13.333,0 25.333,4.667 36,14 21.333,22.667 21.333,46 0,70 0,0 -42,40 -42,40 -37.333,37.333 -81.333,56 -132,56 C 138,900 93.333,881.333 56,844 18.667,806.667 0,762.667 0,712 0,660 18.667,615.333 56,578 c 0,0 148,-148 148,-148 46.667,-45.333 94.667,-71 144,-77 49.333,-6 92,8.333 128,43 10.667,10.667 16,22.667 16,36 0,13.333 -5.333,25.333 -16,36 -24,21.333 -47.333,21.333 -70,0 -33.333,-32 -77.333,-20.667 -132,34 0,0 -148,146 -148,146 -17.333,17.333 -26,38.667 -26,64 0,25.333 8.667,46 26,62 17.333,17.333 38.333,26 63,26 24.667,0 45.667,-8.667 63,-26 0,0 42,-40 42,-40 M 744,160 c 37.333,37.333 56,81.333 56,132 0,52 -18.667,96.667 -56,134 0,0 -158,158 -158,158 -49.333,48 -99.333,72 -150,72 -41.333,0 -78.667,-16.667 -112,-50 -9.333,-9.333 -14,-20.667 -14,-34 0,-13.333 4.667,-25.333 14,-36 9.333,-9.333 21,-14 35,-14 14,0 25.667,4.667 35,14 33.333,32 74,24 122,-24 0,0 158,-156 158,-156 18.667,-18.667 28,-40 28,-64 0,-25.333 -9.333,-46 -28,-62 -16,-17.333 -34.667,-27.667 -56,-31 -21.333,-3.333 -41.333,3.667 -60,21 0,0 -50,50 -50,50 -10.667,9.333 -22.667,14 -36,14 -13.333,0 -24.667,-4.667 -34,-14 -22.667,-22.667 -22.667,-46 0,-70 0,0 50,-50 50,-50 36,-36 78.333,-53 127,-51 48.667,2 91.667,22.333 129,61 0,0 0,0 0,0"
         id="path6439"
         inkscape:connector-curvature="0" />
    </g>
    <g
       transform="matrix(0.00423197,0,0,0.00423197,8.4673997,168.92502)"
       id="g7010">
      <path
         d="m 499.75,74 c 0,0 260,244 260,244 0,0 -164,0 -164,0 0,0 0,256 0,256 0,0 -190,0 -190,0 0,0 0,-256 0,-256 0,0 -166,0 -166,0 0,0 260,-244 260,-244 m 468,578 c 12,6.667 21,17.333 27,32 6,14.667 7,28 3,40 0,0 -28,154 -28,154 -2.667,13.333 -10,24.333 -22,33 -12,8.667 -25.333,13 -40,13 0,0 -816,0 -816,0 -14.667,0 -28,-4.333 -40,-13 -12,-8.667 -19.333,-19.667 -22,-33 0,0 -28,-154 -28,-154 -6.667,-32 4,-56 32,-72 0,0 158,-108 158,-108 0,0 98,0 98,0 0,0 -170,130 -170,130 0,0 178,0 178,0 5.333,0 9.333,2.667 12,8 0,0 40,110 40,110 0,0 300,0 300,0 0,0 40,-110 40,-110 5.333,-5.333 9.333,-8 12,-8 0,0 178,0 178,0 0,0 -170,-130 -170,-130 0,0 98,0 98,0 0,0 160,108 160,108"
         id="path7012"
         inkscape:connector-curvature="0" />
    </g>
  </g>
</svg>
